<svg width="175" height="31" viewBox="0 0 175 31" fill="none" xmlns="http://www.w3.org/2000/svg">
<path d="M45.492 23.33C41.048 23.33 37.66 19.92 37.66 15.586C37.66 11.252 41.048 7.842 45.492 7.842C48.132 7.842 50.728 9.25 51.806 11.692L48.484 13.54C47.868 12.44 47.032 11.692 45.316 11.692C43.226 11.692 41.84 13.276 41.84 15.586C41.84 17.896 43.182 19.48 45.316 19.48C47.032 19.48 47.934 18.732 48.484 17.632L51.806 19.48C50.728 21.922 48.132 23.33 45.492 23.33ZM55.4302 10.834C54.1322 10.834 53.0542 9.756 53.0542 8.458C53.0542 7.16 54.1322 6.082 55.4302 6.082C56.7282 6.082 57.8062 7.16 57.8062 8.458C57.8062 9.756 56.7282 10.834 55.4302 10.834ZM53.4502 12H57.4102V23H53.4502V12ZM66.019 15.52C64.567 15.52 64.017 16.686 64.017 18.072V23H60.057V17.588C60.057 14.354 61.949 11.67 66.019 11.67C70.089 11.67 71.981 14.354 71.981 17.588V23H68.021V18.072C68.021 16.686 67.471 15.52 66.019 15.52ZM79.8923 23.308C76.3723 23.308 73.7323 20.976 73.7323 17.368C73.7323 14.2 76.1083 11.56 79.5843 11.56C83.1923 11.56 85.1943 14.244 85.1943 17.192V18.182H77.5383C77.8023 19.282 78.6383 19.942 79.8483 19.942C80.9043 19.942 81.7403 19.37 82.1363 18.512L85.1723 20.03C84.2263 22.076 82.3563 23.308 79.8923 23.308ZM77.7143 16.136H81.2563C81.0803 15.52 80.4643 14.948 79.5403 14.948C78.5943 14.948 77.9563 15.498 77.7143 16.136ZM101.228 11.56C105.012 11.56 106.838 14.2 106.838 17.258V23H102.878V17.94C102.878 16.554 102.372 15.41 100.92 15.41C99.4683 15.41 98.9843 16.554 98.9843 17.94V23H95.0243V17.94C95.0243 16.554 94.5403 15.41 93.0883 15.41C91.6363 15.41 91.1303 16.554 91.1303 17.94V23H87.1703V17.258C87.1703 14.2 88.9963 11.56 92.7803 11.56C94.8483 11.56 96.3443 12.374 97.0263 13.716C97.7523 12.374 99.3363 11.56 101.228 11.56ZM113.991 23.33C110.779 23.33 108.601 20.69 108.601 17.478C108.601 14.288 111.219 11.648 114.651 11.648C118.171 11.648 120.701 14.112 120.701 17.478V23H116.961V22.186C116.257 22.912 115.267 23.33 113.991 23.33ZM114.651 19.612C115.905 19.612 116.741 18.644 116.741 17.5C116.741 16.334 115.905 15.366 114.651 15.366C113.397 15.366 112.561 16.334 112.561 17.5C112.561 18.644 113.397 19.612 114.651 19.612ZM129.785 23H123.559V8.15H129.785C133.525 8.15 135.769 9.8 135.769 12.352C135.769 13.958 134.933 15.058 133.635 15.63C134.955 16.07 135.879 16.994 135.879 18.798C135.879 21.57 133.415 23 129.785 23ZM127.629 11.45V14.024H130.005C131.149 14.024 131.699 13.54 131.699 12.682C131.699 11.934 131.171 11.45 130.005 11.45H127.629ZM127.629 17.324V19.7H130.005C131.149 19.7 131.809 19.37 131.809 18.512C131.809 17.588 131.149 17.324 130.005 17.324H127.629ZM143.654 19.48C144.93 19.48 145.48 18.314 145.48 16.928V12H149.44V17.412C149.44 20.646 147.548 23.33 143.654 23.33C139.76 23.33 137.868 20.646 137.868 17.412V12H141.828V16.928C141.828 18.314 142.378 19.48 143.654 19.48ZM161.374 23H154.378C152.266 23 151.232 21.856 151.21 20.536C151.188 19.392 151.628 18.512 152.75 17.852L157.04 15.3H151.65V12H158.36C160.472 12 161.506 13.144 161.528 14.464C161.55 15.608 161.11 16.488 159.988 17.148L155.698 19.7H161.374V23ZM173.448 23H166.452C164.34 23 163.306 21.856 163.284 20.536C163.262 19.392 163.702 18.512 164.824 17.852L169.114 15.3H163.724V12H170.434C172.546 12 173.58 13.144 173.602 14.464C173.624 15.608 173.184 16.488 172.062 17.148L167.772 19.7H173.448V23Z" fill="#FF7C7C"/>
<path d="M10.8392 13.402C13.6904 12.507 14.1168 11.0278 14.3815 9.48693C14.4152 9.29045 14.6746 9.23238 14.7958 9.39071C16.0208 10.9919 17.6771 11.9967 19.0429 12.5254C19.2685 12.6128 19.2639 13.1035 19.0519 13.2203C17.5534 14.0458 17.2189 15.9821 17.1519 17.5816C17.1411 17.8396 16.5825 17.9542 16.4416 17.7378C15.135 15.7302 12.6137 14.4859 10.8334 13.9076C10.6116 13.8356 10.6166 13.4719 10.8392 13.402Z" fill="#FED918"/>
<path fill-rule="evenodd" clip-rule="evenodd" d="M3.56067 11.8172C6.6432 13.4107 10.3047 12.4534 11.7388 9.67915C13.1729 6.90487 11.8366 3.3641 8.75411 1.77062C5.67157 0.177147 2.01009 1.13438 0.57596 3.90866C-0.858169 6.68295 0.478129 10.2237 3.56067 11.8172ZM5.52103 7.45653C6.2162 7.81589 7.04194 7.60001 7.36537 6.97436C7.68879 6.3487 7.38743 5.55018 6.69225 5.19082C5.99708 4.83146 5.17134 5.04734 4.84792 5.67299C4.52449 6.29865 4.82586 7.09717 5.52103 7.45653Z" fill="url(#paint0_linear_2_6)"/>
<path fill-rule="evenodd" clip-rule="evenodd" d="M3.56067 11.8172C6.6432 13.4107 10.3047 12.4534 11.7388 9.67915C13.1729 6.90487 11.8366 3.3641 8.75411 1.77062C5.67157 0.177147 2.01009 1.13438 0.57596 3.90866C-0.858169 6.68295 0.478129 10.2237 3.56067 11.8172ZM5.52103 7.45653C6.2162 7.81589 7.04194 7.60001 7.36537 6.97436C7.68879 6.3487 7.38743 5.55018 6.69225 5.19082C5.99708 4.83146 5.17134 5.04734 4.84792 5.67299C4.52449 6.29865 4.82586 7.09717 5.52103 7.45653Z" fill="#FED918"/>
<path fill-rule="evenodd" clip-rule="evenodd" d="M20.7364 25.0613C23.2416 27.501 27.0025 27.7023 29.1366 25.511C31.2706 23.3196 30.9697 19.5654 28.4645 17.1256C25.9592 14.6859 22.1983 14.4846 20.0643 16.6759C17.9302 18.8673 18.2311 22.6215 20.7364 25.0613ZM23.946 21.8915C24.4067 22.3402 25.0985 22.3772 25.491 21.9742C25.8834 21.5712 25.8281 20.8807 25.3673 20.432C24.9066 19.9832 24.2149 19.9462 23.8224 20.3492C23.4299 20.7523 23.4852 21.4428 23.946 21.8915Z" fill="url(#paint1_linear_2_6)"/>
<path fill-rule="evenodd" clip-rule="evenodd" d="M20.7364 25.0613C23.2416 27.501 27.0025 27.7023 29.1366 25.511C31.2706 23.3196 30.9697 19.5654 28.4645 17.1256C25.9592 14.6859 22.1983 14.4846 20.0643 16.6759C17.9302 18.8673 18.2311 22.6215 20.7364 25.0613ZM23.946 21.8915C24.4067 22.3402 25.0985 22.3772 25.491 21.9742C25.8834 21.5712 25.8281 20.8807 25.3673 20.432C24.9066 19.9832 24.2149 19.9462 23.8224 20.3492C23.4299 20.7523 23.4852 21.4428 23.946 21.8915Z" fill="#FED918"/>
<path fill-rule="evenodd" clip-rule="evenodd" d="M4.14157 26.4477L8.18295 21.279C8.24638 21.1727 8.32191 21.0769 8.4073 20.9921L8.42332 20.9716L8.42609 20.9737C8.92553 20.4951 9.74558 20.3835 10.4569 20.7512C11.3303 21.2027 11.7089 22.206 11.3026 22.9921C11.2178 23.1561 11.1055 23.2977 10.973 23.4151L7.03386 28.453C10.53 29.8975 14.461 28.7136 16.0575 25.6253C17.7531 22.3451 16.1731 18.1587 12.5285 16.2746C8.88386 14.3906 4.55472 15.5224 2.85909 18.8025C1.56949 21.2972 2.17456 24.3161 4.14157 26.4477Z" fill="#FF7C7C"/>
<path fill-rule="evenodd" clip-rule="evenodd" d="M21.231 2.23419C18.8163 1.49089 16.3622 2.19864 15.3991 4.06183C14.28 6.2267 15.5974 9.13167 18.3416 10.5503C21.0859 11.9689 24.2177 11.3639 25.3368 9.19903C26.2832 7.36822 25.487 5.00809 23.559 3.46529L21.633 6.8725C21.6181 6.92277 21.5984 6.97195 21.5737 7.01963C21.3062 7.5372 20.5574 7.68183 19.9013 7.34268C19.2453 7.00353 18.9303 6.30901 19.1978 5.79144C19.2315 5.7264 19.2727 5.66724 19.3204 5.6142L21.231 2.23419Z" fill="#FF7C7C"/>
<defs>
<linearGradient id="paint0_linear_2_6" x1="6.15738" y1="1" x2="6.15738" y2="12.5878" gradientUnits="userSpaceOnUse">
<stop stop-color="#FFA0A0"/>
<stop offset="1" stop-color="#0047FD"/>
</linearGradient>
<linearGradient id="paint1_linear_2_6" x1="24.6004" y1="15.1555" x2="24.6004" y2="27.0314" gradientUnits="userSpaceOnUse">
<stop stop-color="#FFA0A0"/>
<stop offset="1" stop-color="#0047FD"/>
</linearGradient>
</defs>
</svg>
